<svg width="31" height="30" viewBox="0 0 31 30" fill="none" xmlns="http://www.w3.org/2000/svg">
<g clip-path="url(#clip0_56_65)">
<path d="M24.064 0H6.60303C4.84521 0 3.36084 0.605469 2.1499 1.81641C0.938965 3.02734 0.333496 4.51172 0.333496 6.26953V23.7305C0.333496 25.4883 0.938965 26.9727 2.1499 28.1836C3.36084 29.3945 4.84521 30 6.60303 30H24.064C25.8218 30 27.3062 29.3945 28.5171 28.1836C29.728 26.9727 30.3335 25.4883 30.3335 23.7305V6.26953C30.3335 4.51172 29.728 3.02734 28.5171 1.81641C27.3062 0.605469 25.8218 0 24.064 0ZM27.814 23.7305C27.814 24.8242 27.4624 25.7227 26.7593 26.4258C26.0562 27.1289 25.1577 27.4805 24.064 27.4805H6.60303C5.50928 27.4805 4.61084 27.1289 3.90771 26.4258C3.20459 25.7227 2.85303 24.8242 2.85303 23.7305V6.26953C2.85303 5.17578 3.20459 4.27734 3.90771 3.57422C4.61084 2.87109 5.50928 2.51953 6.60303 2.51953H24.064C25.1577 2.51953 26.0562 2.87109 26.7593 3.57422C27.4624 4.27734 27.814 5.17578 27.814 6.26953V23.7305ZM21.603 13.7695H9.06396C8.24365 13.7695 7.8335 14.1797 7.8335 15C7.8335 15.8203 8.24365 16.2305 9.06396 16.2305H21.603C22.4233 16.2305 22.8335 15.8203 22.8335 15C22.8335 14.1797 22.4233 13.7695 21.603 13.7695Z" fill="#331F1F"/>
</g>
<defs>
<clipPath id="clip0_56_65">
<rect width="30" height="30" fill="white" transform="translate(0.333496)"/>
</clipPath>
</defs>
</svg>
