<svg width="31" height="28" viewBox="0 0 31 28" fill="none" xmlns="http://www.w3.org/2000/svg">
<path d="M28.7702 8.75399L8.16624 6.47399L6.91024 1.71499C6.86658 1.55538 6.77189 1.41443 6.64062 1.31368C6.50935 1.21293 6.34872 1.1579 6.18324 1.15699H3.09024C2.97845 1.00651 2.83334 0.883962 2.66626 0.79895C2.49919 0.713937 2.31469 0.668772 2.12724 0.666992C1.79798 0.666992 1.4822 0.797792 1.24937 1.03062C1.01654 1.26345 0.885742 1.57923 0.885742 1.90849C0.885742 2.23776 1.01654 2.55354 1.24937 2.78637C1.4822 3.01919 1.79798 3.14999 2.12724 3.14999C2.52724 3.14999 2.86524 2.94999 3.09224 2.65799H5.60424L10.8342 22.458C10.2637 23.0653 9.94556 23.8668 9.94424 24.7C9.94385 25.1325 10.0287 25.5608 10.194 25.9604C10.3593 26.36 10.6018 26.7232 10.9075 27.029C11.2133 27.3349 11.5763 27.5774 11.9759 27.7428C12.3755 27.9083 12.8038 27.9933 13.2362 27.993C14.11 27.9933 14.9482 27.6465 15.5665 27.029C16.1847 26.4115 16.5324 25.5738 16.5332 24.7C16.5315 24.4495 16.5003 24.2001 16.4402 23.957H21.9732C21.9141 24.2003 21.8832 24.4496 21.8812 24.7C21.8812 26.52 23.3572 27.993 25.1772 27.993C26.9972 27.993 28.4702 26.52 28.4702 24.7C28.4705 23.826 28.1236 22.9877 27.5059 22.3694C26.8882 21.7512 26.0502 21.4035 25.1762 21.403C24.2262 21.403 23.3762 21.813 22.7742 22.456H15.6382C15.332 22.1245 14.9606 21.8598 14.5472 21.6786C14.1339 21.4974 13.6876 21.4036 13.2362 21.403C12.8562 21.403 12.4982 21.481 12.1592 21.599L11.9772 20.913H26.5602C27.1207 20.9015 27.661 20.7021 28.0944 20.3466C28.5279 19.9911 28.8293 19.5003 28.9502 18.953L30.5252 11.155C30.5518 11.0186 30.5652 10.88 30.5652 10.741C30.566 10.246 30.3827 9.76838 30.051 9.40097C29.7192 9.03357 29.2628 8.80362 28.7702 8.75399ZM25.1782 24.994C25.0999 24.9937 25.0248 24.9626 24.9692 24.9074C24.9136 24.8522 24.882 24.7773 24.8812 24.699C24.8842 24.533 25.0162 24.401 25.1792 24.401C25.3422 24.401 25.4742 24.533 25.4762 24.698C25.4752 24.7762 25.4435 24.8508 25.3879 24.9058C25.3324 24.9608 25.2574 24.9917 25.1792 24.992L25.1782 24.994ZM26.9582 17.499L27.9062 16.549L27.5882 18.129L26.9582 17.499ZM12.5052 8.46199L13.5402 9.49999L12.2502 10.79L10.9572 9.49999L12.0442 8.41199L12.5042 8.46199H12.5052ZM17.0032 8.95999L17.5412 9.49999L16.2512 10.79L14.9582 9.49999L15.6462 8.80999L17.0032 8.95999ZM9.38024 11.076L10.2502 10.208L11.5402 11.5L10.2502 12.79L9.68524 12.227L9.38124 11.075L9.38024 11.076ZM9.08524 9.95599L8.75724 8.71599L9.54224 9.50099L9.08524 9.95599ZM21.5402 13.5L20.2502 14.79L18.9572 13.5L20.2492 12.207L21.5392 13.499L21.5402 13.5ZM20.9572 11.5L22.2492 10.208L23.5392 11.5L22.2492 12.792L20.9562 11.5H20.9572ZM18.2502 12.79L16.9572 11.5L18.2492 10.207L19.5392 11.499L18.2492 12.789L18.2502 12.79ZM17.5402 13.5L16.2502 14.79L14.9582 13.5L16.2502 12.207L17.5402 13.5ZM14.2502 12.79L12.9572 11.5L14.2492 10.207L15.5392 11.499L14.2492 12.789L14.2502 12.79ZM13.5402 13.5L12.2502 14.79L10.9572 13.5L12.2492 12.207L13.5392 13.499L13.5402 13.5ZM10.2502 14.207L11.5402 15.499L10.7562 16.282L10.2162 14.238L10.2492 14.205L10.2502 14.207ZM11.0522 17.404L12.2492 16.207L13.5392 17.499L12.2492 18.789L11.1192 17.659L11.0512 17.403L11.0522 17.404ZM12.9582 15.499L14.2482 14.206L15.5412 15.498L14.2512 16.788L12.9592 15.498L12.9582 15.499ZM16.2502 16.206L17.5422 17.498L16.2502 18.788L14.9582 17.498L16.2502 16.206ZM16.9582 15.498L18.2502 14.205L19.5402 15.497L18.2502 16.787L16.9582 15.498ZM20.2482 16.205L21.5412 17.497L20.2512 18.787L18.9592 17.495L20.2492 16.205H20.2482ZM20.9582 15.497L22.2482 14.204L23.5412 15.496L22.2512 16.786L20.9582 15.497ZM22.9582 13.497L24.2482 12.204L25.5412 13.496L24.2512 14.786L22.9582 13.497ZM24.9582 11.497L26.2482 10.204L27.5402 11.5L26.2502 12.792L24.9572 11.499L24.9582 11.497ZM24.2482 10.789L23.0932 9.63299L25.1752 9.86299L24.2492 10.789H24.2482ZM21.5422 9.49999L20.2522 10.792L18.9592 9.49999L19.2492 9.20999L21.5022 9.45999L21.5422 9.49999ZM14.2522 8.78999L14.1002 8.63999L14.3732 8.66999L14.2532 8.78999H14.2522ZM10.2522 8.79199L9.60224 8.14199L10.7722 8.27199L10.2522 8.79199ZM14.2522 18.207L15.4572 19.412H13.0472L14.2522 18.207ZM18.2522 18.207L19.4572 19.413H17.0452L18.2512 18.207H18.2522ZM22.2522 18.207L23.4592 19.414H21.0452L22.2512 18.207H22.2522ZM22.9592 17.499L24.2512 16.206L25.5412 17.498L24.2512 18.788L22.9582 17.498L22.9592 17.499ZM24.9592 15.499L26.2512 14.207L27.5412 15.497L26.2512 16.79L24.9582 15.5L24.9592 15.499ZM28.2512 14.789L26.9592 13.499L28.2492 12.207L28.6942 12.651L28.2642 14.775L28.2502 14.79L28.2512 14.789ZM28.7512 10.289L28.2512 10.789L27.5912 10.132L28.6082 10.244C28.6622 10.252 28.7082 10.27 28.7522 10.288L28.7512 10.289ZM13.2382 24.993C13.1626 24.9886 13.0915 24.9554 13.0395 24.9003C12.9874 24.8452 12.9585 24.7723 12.9585 24.6965C12.9585 24.6207 12.9874 24.5478 13.0395 24.4927C13.0915 24.4375 13.1626 24.4044 13.2382 24.4C13.3136 24.4044 13.3845 24.4374 13.4363 24.4924C13.4882 24.5473 13.517 24.62 13.517 24.6955C13.517 24.771 13.4882 24.8437 13.4363 24.8986C13.3845 24.9536 13.3136 24.9866 13.2382 24.991V24.993ZM26.5612 19.413H25.0442L26.2512 18.206L27.1812 19.136C26.9942 19.306 26.7582 19.426 26.5612 19.413Z" fill="#331F1F"/>
</svg>
